Coordinates
version=1
nRows=26
nColumns=22
inDegrees=yes

Units are S.I. units (second, meters, Newtons, ...)
If the header above contains a line with 'inDegrees', this indicates whether rotational values are in degrees (yes) or radians (no).

endheader
time	pelvis_tilt	pelvis_list	pelvis_rotation	pelvis_tx	pelvis_ty	pelvis_tz	hip_flexion_r	hip_adduction_r	hip_rotation_r	knee_angle_r	ankle_angle_r	subtalar_angle_r	hip_flexion_l	hip_adduction_l	hip_rotation_l	knee_angle_l	ankle_angle_l	subtalar_angle_l	lumbar_extension	lumbar_bending	lumbar_rotation
      2.19000000	      6.02466263	     -1.07752399	      6.33881912	      0.03672560	      0.93800296	      0.63179506	     20.22362059	     -4.62259817	     -4.38197095	    -36.97343271	      5.66866859	      4.05433576	     -7.49527402	      5.41058448	     -0.28372430	    -16.64573625	     24.20334868	    -16.91898023	    -15.19838793	      3.83351710	    -11.24679309
      2.20000000	      6.12457450	     -1.00918437	      7.06166199	      0.04562555	      0.93675485	      0.63084050	     20.41408671	     -4.65079393	     -4.51623108	    -33.97964679	      5.25108411	      4.78757760	     -8.16286569	      5.28306728	      0.29195455	    -16.76741189	     24.73817513	    -16.62477293	    -15.27429621	      3.84240385	    -11.51570610
      2.21000000	      6.23028736	     -0.93325883	      7.77388075	      0.05461354	      0.93536041	      0.62989364	     20.50167527	     -4.66145950	     -4.62654472	    -30.93885434	      4.77498950	      5.71818768	     -8.81493964	      5.15327236	      0.86577145	    -16.94312661	     25.30370340	    -16.36047079	    -15.35303799	      3.84272891	    -11.76770921
      2.22000000	      6.35391382	     -0.85960215	      8.48095054	      0.06368331	      0.93384651	      0.62895040	     20.48022627	     -4.64700454	     -4.71992391	    -27.89712070	      4.30500350	      6.81883868	     -9.45667707	      5.00922786	      1.44906835	    -17.18717489	     25.88438784	    -16.14684425	    -15.45048555	      3.84876747	    -11.99076374
      2.23000000	      6.49533970	     -0.79520732	      9.18767562	      0.07283577	      0.93221432	      0.62799193	     20.36622930	     -4.60782252	     -4.80359192	    -24.91614393	      3.88729645	      8.04098434	    -10.08524192	      4.84503144	      2.04054834	    -17.50548292	     26.48008705	    -15.99629712	    -15.56527412	      3.87226940	    -12.16583170
      2.24000000	      6.65943589	     -0.74658416	      9.89461187	      0.08210567	      0.93049235	      0.62701844	     20.16484482	     -4.53776998	     -4.86848404	    -22.05301714	      3.56826030	      9.29564894	    -10.71626159	      4.65062250	      2.61028998	    -17.87754618	     27.08203614	    -15.91111517	    -15.69522457	      3.92458767	    -12.32572556
      2.25000000	      6.83964625	     -0.71778858	     10.60088033	      0.09148448	      0.92868446	      0.62604951	     19.90975074	     -4.43668730	     -4.90061965	    -19.38750578	      3.35205013	     10.53554198	    -11.33406356	      4.42263425	      3.15567305	    -18.31796602	     27.69351514	    -15.88464733	    -15.83525836	      4.00290190	    -12.45361291
      2.26000000	      7.03980821	     -0.71440294	     11.30699009	      0.10097505	      0.92682146	      0.62507579	     19.61806117	     -4.30318866	     -4.89433110	    -16.99058892	      3.23704698	     11.62442568	    -11.94043173	      4.15510974	      3.66399823	    -18.82821587	     28.29321392	    -15.90767082	    -15.98769592	      4.11519504	    -12.54812824
      2.27000000	      7.24944907	     -0.73759035	     12.01086068	      0.11057645	      0.92491810	      0.62407737	     19.32106153	     -4.14398363	     -4.83951727	    -14.92507742	      3.19147149	     12.56001664	    -12.52345947	      3.85169487	      4.13186527	    -19.40771884	     28.88258121	    -15.97434288	    -16.14141143	      4.26725989	    -12.61746237
      2.28000000	      7.42342924	     -0.81353652	     12.72384890	      0.12025905	      0.92290897	      0.62303570	     19.10439694	     -3.95329555	     -4.79330388	    -13.27219351	      3.18300442	     13.06033550	    -13.00069451	      3.49650311	      4.57334286	    -20.10876543	     29.51387275	    -16.02544899	    -16.23838607	      4.47942753	    -12.64895177
      2.29000000	      7.65859545	     -0.86822730	     13.39836547	      0.13008821	      0.92106223	      0.62198172	     18.82548836	     -3.76238186	     -4.61387324	    -11.99791013	      3.18704232	     13.67397240	    -13.56809283	      3.15587173	      4.98858475	    -20.78538518	     29.96749349	    -16.17385261	    -16.40363589	      4.68088895	    -12.66713721
      2.30000000	      7.83482243	     -0.97016645	     14.08540099	      0.13999763	      0.91914362	      0.62086284	     18.67152754	     -3.55252429	     -4.45492296	    -11.19764708	      3.13588894	     13.86997136	    -13.99830187	      2.77613524	      5.39686627	    -21.59445955	     30.43219274	    -16.27685468	    -16.48263494	      4.93043908	    -12.66230380
      2.31000000	      7.97395468	     -1.09446858	     14.76914392	      0.15001049	      0.91725335	      0.61970269	     18.60180846	     -3.33122965	     -4.25631247	    -10.84497767	      2.99079060	     13.85073529	    -14.34791946	      2.38079724	      5.80464643	    -22.47556015	     30.82077631	    -16.33244680	    -16.50422859	      5.19752949	    -12.64072789
      2.32000000	      8.11229114	     -1.24278025	     15.44482832	      0.16017218	      0.91549220	      0.61852726	     18.56234711	     -3.07761288	     -4.02085408	    -10.89551348	      2.67196281	     13.69183173	    -14.65960320	      1.95620645	      6.21006224	    -23.42388666	     31.08733330	    -16.40034865	    -16.50298993	      5.48712815	    -12.62833900
      2.33000000	      8.21560539	     -1.40777635	     16.10868463	      0.17046798	      0.91383800	      0.61733965	     18.59320959	     -2.80156926	     -3.72068962	    -11.33032844	      2.15796516	     13.41753577	    -14.89294455	      1.51959112	      6.61580327	    -24.43963038	     31.21467384	    -16.44607431	    -16.44344548	      5.78179468	    -12.62023261
      2.34000000	      8.24183942	     -1.60082587	     16.74253601	      0.18091035	      0.91222559	      0.61621385	     18.77216668	     -2.49437471	     -3.40194981	    -12.16196102	      1.50328428	     12.72194690	    -14.98303981	      1.07399325	      7.00104760	    -25.55395577	     31.22634109	    -16.44326116	    -16.27492054	      6.06172648	    -12.57611965
      2.35000000	      8.24306090	     -1.82398943	     17.35198479	      0.19154166	      0.91080994	      0.61510715	     19.00866448	     -2.13714248	     -3.04742038	    -13.28408057	      0.63858392	     12.14137196	    -15.01883742	      0.60285143	      7.39499543	    -26.69456473	     31.02871968	    -16.35940387	    -16.04895936	      6.35382853	    -12.52938242
      2.36000000	      8.21229496	     -2.07319278	     17.92417440	      0.20235384	      0.90959273	      0.61403997	     19.31949471	     -1.73562747	     -2.69364171	    -14.65825012	     -0.30480579	     11.52181469	    -14.98122470	      0.11587851	      7.76836522	    -27.88000040	     30.64291007	    -16.21375886	    -15.76194901	      6.64575254	    -12.47424826
      2.37000000	      8.16168494	     -2.34329319	     18.45034345	      0.21335887	      0.90862597	      0.61298946	     19.68059652	     -1.29731875	     -2.37793292	    -16.21632220	     -1.18943763	     10.83518249	    -14.89168413	     -0.37849221	      8.11793304	    -29.09279074	     30.02965633	    -15.99259348	    -15.42838591	      6.93623026	    -12.39694917
      2.38000000	      8.11133523	     -2.62613509	     18.92616951	      0.22455620	      0.90797257	      0.61192590	     20.04748087	     -0.83343401	     -2.13024063	    -17.87937419	     -1.88110360	     10.09251802	    -14.77320553	     -0.87501216	      8.42584923	    -30.32560503	     29.14421632	    -15.68779264	    -15.07450096	      7.22678308	    -12.29103107
      2.39000000	      8.08462961	     -2.91145935	     19.34903636	      0.23593104	      0.90768024	      0.61081561	     20.35955422	     -0.35486518	     -1.95146695	    -19.55264157	     -2.30718223	      9.38545793	    -14.64708658	     -1.36696700	      8.67006605	    -31.58473861	     27.98533928	    -15.32865109	    -14.73151892	      7.51820630	    -12.16036425
      2.40000000	      8.09340782	     -3.18570805	     19.72513035	      0.24746561	      0.90777594	      0.60961610	     20.56113787	      0.12306767	     -1.82520013	    -21.14858787	     -2.43666038	      8.74517148	    -14.51739134	     -1.84450082	      8.83938302	    -32.88259809	     26.52308445	    -14.91308545	    -14.41848741	      7.81008496	    -12.00872441
      2.41000000	      8.16609828	     -3.45772337	     20.06036228	      0.25917253	      0.90828890	      0.60832239	     20.58368855	      0.61666040	     -1.76601646	    -22.57966206	     -2.24471696	      8.15309907	    -14.40198985	     -2.33332297	      8.90931494	    -34.22542739	     24.74588690	    -14.41425551	    -14.16155505	      8.12126807	    -11.80537391
      2.42000000	      8.27805050	     -3.69360936	     20.36665019	      0.27095526	      0.90916694	      0.60695051	     20.43296957	      1.08376458	     -1.74431499	    -23.81604693	     -1.84087846	      7.68613592	    -14.24244823	     -2.79761937	      8.86643701	    -35.66838139	     22.65250402	    -13.92454846	    -13.95806667	      8.40643485	    -11.61035925
      2.43000000	      8.43816453	     -3.91875593	     20.66717280	      0.28279194	      0.91038097	      0.60547541	     20.08021467	      1.54612813	     -1.79210954	    -24.80230011	     -1.24449440	      7.27463226	    -14.01867278	     -3.27568690	      8.72039215	    -37.23294863	     20.25943030	    -13.41759926	    -13.80482450	      8.70148973	    -11.38379632
      2.44000000	      8.61761538	     -4.12212444	     20.98382558	      0.29458766	      0.91184469	      0.60390056	     19.56095922	      1.97613959	     -1.91534048	    -25.54666155	     -0.51217864	      6.93041679	    -13.66903813	     -3.75404411	      8.49635458	    -38.95955107	     17.59443013	    -12.95037076	    -13.68477657	      8.98392391	    -11.14910031
